<?xml version="1.0" encoding="UTF-8"?><svg id="Layer_1" xmlns="http://www.w3.org/2000/svg" viewBox="0 0 749.633667 808.011347"><defs><style>.cls-1{fill:#fdc30e;}.cls-2{fill:#bc843c;}.cls-3{fill:#4b6732;}</style></defs><path class="cls-3" d="M709.918274,208.163379c-.54137-.228927-1.767269.076187-2.994963.336646.228331,1.96781,2.270081,4.880708,4.018286,5.245894l1.039024.217044c.43172,1.677201-.475609,3.560855-1.864434,4.901519l-4.971692,4.799284c-1.056582-.115214-3.116434.085868-4.250311.099355-.840298-2.432622-2.796848-3.104407-5.388959-4.061351l-8.875299-3.276544c-10.562427-3.89939-10.486954-16.291517-19.41864-10.391095l-6.346003,4.192276-9.72924.967915c-1.364171.748665-3.993396,3.180432-5.437561,2.858622-1.443971-.321767-4.127652-1.9713-5.790083-2.805083-2.75535.795985-6.534791,3.921101-9.241329,5.103551-4.116613,1.798492-8.19486,3.055833-9.272866,7.369875l-10.343138.13599c-2.312059.030399-6.189145-.634554-6.563954,2.15195l-5.977677.232701c-2.024468.078809-5.576207,2.157633-6.349297,3.608413l-7.652703.44713c-.937235.05476-3.028379-.032579-4.229466-.014197-.940932.014401-1.42657,1.424473-1.873829,2.519151l-2.826582.245774c1.213155-2.322871-12.646962-.451577-10.296032,1.934937l-11.057084.966715-13.710537,7.351651c-3.384067,1.814551-9.003321,1.068025-12.61994,2.395395l-9.595494,3.521733c-2.156889.79162-5.657864,1.960672-7.577659,2.185298-.659207.077131-2.255152-.066004-2.441142.570234l-.568632,1.945179c-1.070347.437772-2.326021,1.294354-3.132776,2.102273-6.57217.969624-.215027,7.282603-7.711231,10.976072-12.024357,5.924544-3.312944,13.00957-18.117888,25.254265-.363788.040724-1.006414.382617-1.358303.546485-1.761368,2.467423-3.539433,4.572662-5.551129,6.916061l-10.248566,11.938426c-1.876686,2.186129-3.521357,4.786937-5.001792,7.065782-1.107654,1.70502-1.834328,3.565239-2.104219,5.679311-3.111468.754238-4.636471,4.371658-7.197382,6.669891-16.082129,14.432553-7.480093,14.558136-17.737498,20.367152-3.317444,1.878749-5.475038,5.057418-7.791568,7.948269l-7.985598,9.96541c-4.915882,6.134641-7.386056,12.711107-6.458173,20.980947.261144,2.327468-1.700038,6.34218-1.866287,8.367783-.84664,10.315543-1.369863,20.294766-4.743625,30.228583-1.051133,3.094991-2.012672,6.222208-2.712078,9.083957-.948098-.107299-3.079607,1.899322-3.040451,3.011994l.394679,11.215557c.101179,2.875208,4.791558,8.235081,7.616238,8.326019l24.479249.788089c3.33762.107452,9.038256,2.058333,20.268141,1.43919,6.724405-.37074,12.137564,1.728048,18.261386,3.4127,7.787202,2.142245,16.552139.485933,24.667882.851061l18.978324.853837c1.520106.06839,4.093184,1.612119,5.940111,1.526748,10.621447-.490957,20.354064-.584461,30.76836-.340933,2.023847.047326,3.886811.269773,5.209154-.19069l2.05973.177794c3.073712,5.925388,6.855996-.478217,15.949279,6.616788l6.731362.043064,1.065195.256232c-.007901.557641.009657,1.788813.591751,1.822847l1.604065.093788,1.949814.188252-.120857,4.082727c-6.211907.113826-12.844663-.240345-18.819571.451256-6.833953.791036-11.752047,2.773583-22.638433.832345-16.242773-2.896378-11.489483.754376-28.163981-2.565216l-4.311981-2.506088c-6.561192-.039747-13.990063-.392085-20.232284.52855-1.566097.230976-4.53682,2.481797-6.326161,2.408312-17.063915-.700789-18.238511,4.627574-32.866599-2.406328-3.13044-1.505269-32.371874-.95486-38.623506.04648-3.494461.559717-7.466163,3.558558-11.39702,3.290676-6.553821-.446634-12.525869,1.410611-18.935006,1.945327l-4.741797.395609c-.765335.063852-.897835,1.658016-1.175209,2.488562-1.245734.328473-3.749998.237582-5.124462.16995-13.06405-7.35099-20.88973-2.647763-33.883756-9.081994l-35.753943-.059375c-7.54985,6.502394-20.229117,3.704667-24.314663,3.436012l-10.491891-.689919c-4.266455-1.927184-7.606523-2.802143-12.235707-2.864772-12.492572-.169013-9.97833,2.54742-26.316205,4.305737-5.854769.630103-6.722501-.681648-17.489482,1.132461-10.164892,1.712665-32.105743-.369265-43.407661-1.43143l.369638-3.725859.952662-.180408,2.111179-.674087c.351019-.112078.210259-1.064837.165764-1.404654.195901-.024827.615812.006424.819193.005229l6.280099-1.003587c5.165319-2.209184,9.889771-2.990481,15.811727-3.625096,2.630411-.281883,6.910291-2.431336,10.010029-2.452008l32.396787-.216059,6.390739-3.58072c13.230161,1.680703,7.568098-2.151198,15.55685.975678.446585.174798,1.861844-1.343472,2.384574-1.36038,4.870122.108518,14.011294.84375,19.314335-.315583l8.552623-1.869745c3.232314-.706638,6.515046-1.28085,10.006821-1.546622l15.91717-1.211516,11.787943-.682305c2.853153-.165145,6.67534-1.609144,10.109025-1.323224,3.462138.288289,7.15752.012509,9.781131-1.892214l.455018-28.564704.954129-13.079808c.555166-7.610571.956134-14.387339.022947-21.988331-.554353-4.515312-.215226-9.092163-.529054-13.996424-.142649-2.229205-2.502293-5.918474-3.09303-8.15482-1.220724-4.621275-3.531773-7.098807-6.482651-10.75496-3.013701-4.669509-4.121959-17.098246-8.490838-20.190294l-13.558871-9.59621c-2.729867-1.932047-9.1821-2.032958-12.003176-4.867217-.578464-3.221225-1.533827-4.826171-5.08443-6.729715-4.655694-2.496004-.078508-10.296774-22.509941-25.767107-2.466174-1.700851-6.256248-2.058951-8.663192-3.291747-1.962123-1.004966-16.26207-12.835641-20.252935-13.139104-.379221-2.199383-11.71406-6.788666-13.025814-5.917241-1.523427-2.451575-5.296013-3.537705-7.701454-5.71571l-9.318682-8.437593c-.696982-.631082-3.09372-1.732855-3.627733-2.476999-1.193569-1.66323-3.421277-5.334866-5.194518-6.621662l-13.455596-9.764382-10.715433-1.739281c-4.474433-4.628207-9.192188-8.19421-13.675994-12.299754-3.054262-2.7966-4.470506-7.559664-10.565522-5.771263-2.230904.654593-6.942406,1.191289-9.29639.390989-1.472455-.500601-2.968976-4.155164-3.46783-5.379644l6.580425-2.034587c.252241-2.903473.464347-7.264751-.274211-10.42019-.422692-1.805921-6.156094-1.190989-6.248391.536485l-.219101,4.100785c-.047302.885333-2.940693.237233-3.832065.432967l-14.421777,3.16684.411428,4.296139-7.736448.758299-1.682143-.912459c-.448802-.243448-1.324659.676241-1.599804,1.108555-3.53683,5.557141-10.045137,1.180979-16.771978-.061119l-8.743883-5.468631c-1.82512-1.141473-3.530631-3.034366-6.076918-2.845381-7.175311.532551-3.102678-6.300015-7.960392-10.506993-5.245609-4.54291-8.776181,3.973983-22.593346-4.489551-.731045-.447792-3.63215-.640132-3.389682-1.339455l1.389916-4.008772c-3.112696-2.307989-7.621037-5.244079-7.57906-9.578492l2.02688-5.773332c1.761263-5.016752,5.424162-7.031904,10.901539-8.62844l-5.095568-1.834219c1.74223-1.285767,3.512406-2.282034,3.873245-3.35253s-.114311-3.402521-.299996-4.966119c9.028724-4.273971,10.526783-10.540319,13.683253-11.219769,2.43762-.524713,6.193557-.062174,7.904631,1.219372,11.384192,8.526441,8.055071-6.408475,20.185007-4.388592l7.50084-4.259153c-8.334659-4.398009-13.254193-14.419389-9.041321-22.018762.875728-1.579679,5.431822-1.127604,7.108068-1.819161l9.729813-4.014163c3.697126-1.525298,8.3119-3.05939,12.271017-3.498111,3.799124-9.701561,17.066671-9.119594,22.733641-5.532251,3.869119,2.449256,6.973218,4.665162,10.873399,7.773676l10.305158-.682248c.989627-.065518,2.423966-3.69115,1.886726-4.202375l-8.378276-6.683952c-.868637-.692974-2.210651-2.929118-2.007877-3.976047.236572-1.221431,1.742538-3.260012,2.364562-4.62178,1.151049-2.51994,1.73952-4.627156,3.742027-6.136611,14.128657-10.64993,6.507549-.05427,20.555246-7.75845,3.480226-1.908661,7.383517.746586,9.753569,1.259838,3.699232.801095,6.185393,1.555778,9.726565,3.421486,7.210231,3.798795,8.894808,1.60356,10.524715,9.480296.113447.548248,1.458423,1.046198,1.805709.609121l1.754479-2.208107c1.370406-1.724729,7.102452-1.617218,8.518843.11106,2.020989,2.466007,4.716454,5.199326,7.381191,6.998154l6.456331-4.546418c11.234545,3.595656,14.899775,2.252193,22.79557,4.349453l5.325244,1.414477c2.427397.644759,6.200083,3.597393,4.401322,5.861294l-2.308676,2.905674c-.542514.682802.786138,2.97254,1.546956,3.58032l7.134506,5.699399c-6.638351,14.701304,3.291397,10.275267-4.459263,21.080442l2.551368,2.481793c1.57213,9.643389,5.305125,6.492727,5.393104,11.837639.022324,1.356207-1.489182,3.154707-2.945445,4.78319,2.494669,3.979959,6.231691,7.288377,9.866578,10.206077,4.295661,3.4481,8.212269,5.702705,14.019418,5.397085,1.204462-.063389,2.812632.098093,3.394973-.532604,3.387019-3.668271-7.498017-5.860397-5.755719-9.621173,10.268823-5.752935,4.574915-8.39918,7.44833-9.336086l4.786096-1.560554c.126332-3.482696-9.057147-7.804003-5.053659-10.731436,2.770053-2.02552,3.836001-3.167614,6.093503-6.098498l7.52647,3.160137,1.251598-8.304702,3.428882-6.857545c1.937007-3.873889,3.965992-17.723044,1.791361-19.095208l-6.951868-4.386541c-3.281708-2.070717-10.948163-.274773-13.441367-4.604185-1.543066-2.679512-2.098587-7.851064-4.72061-10.001516-2.86914-2.353125-4.980235-4.809004-4.674873-8.61146l11.1441,1.977854c.625444-1.86738.906448-4.914535.627138-6.441754l-9.780592-2.789707c-1.633695-.465977-5.48679.31726-6.785115-.818509-1.771461-1.549668-2.869336-3.884576-2.687098-5.987811l.902254-10.413007,6.48145-6.26849c.150434-1.559561-.043123-3.809017.813892-4.099927.857166-.290961,3.59463-.316726,4.475133-.701356,3.111425-1.359163,7.746262-5.917142,11.139978-6.712823,4.331195-1.01548,7.459856-.658373,10.854326-3.62221,1.311576-1.145185,3.764338-2.273831,5.444134-2.610014,1.589669-.318146,4.144699,2.356646,5.886561,2.935796l8.870721,2.94942c3.428102,1.139807,6.679704.359818,8.861603,3.039183,5.526611,6.786662,2.268818,25.943428,9.656909,18.769727l2.649562-2.572676c2.075645-2.015413,9.573527,10.060034,12.452087,9.420218,6.227364-1.537025,12.897033,6.577609,17.828203,2.253853,5.911611-5.183428.373224-8.280303,4.723248-13.097046.822309-.910535,3.86925-1.685314,4.900171-.964362,1.327141.928107,3.005839,2.334756,4.087653,2.546718,4.784275.937392,7.055612-7.740581,16.406782-.199488l8.432442-4.995888c1.878416-1.112887,6.643532-1.348988,9.219762-1.872215,1.797644-.365098,4.610757-3.782712,6.305494-4.338366,12.188345-3.996197,18.621858,3.737325,23.920674,2.169295,1.302921-4.78731,4.588728-7.011029,8.919405-7.189709,1.975501-9.266191,6.66333-1.660122,9.379044-10.372955,1.990208-6.385189,6.554488-12.772412,12.358448-15.946783,4.868817-2.662912,7.694269,3.981028,10.689456,5.157331,4.144958,1.627854,9.680002-.155466,12.736764,4.934649l8.158662,13.585789,8.541347,4.218175.513673,8.985522,6.134876-.583926c2.179405-.207439,4.72355.764563,6.214795,2.431148,1.877755,2.098539.121572,4.213396-.289348,6.929684-.6986,4.617928-.577055,10.276492-.400892,15.163691,7.635563,4.801912-2.439607,13.301583,4.68878,20.882909,1.020017,1.084829,2.099064,2.633237,2.21517,3.643749.491888,4.281052-5.603169.549753-8.692043,6.197056-.704903,1.288754-1.077984,3.930946-.572581,5.072458,1.363995,3.080746,6.907273.817816,9.977896,2.394271.987749.507109,1.216229,3.152716,1.675643,4.494378.305384.891836,3.358224,1.029891,4.161812,1.632422l10.869808,8.150178c2.319447,1.739121,4.825479,6.55942,7.144813,8.702467l-.057421,9.12777-4.630293,2.072418-6.885147,3.75195c1.587981,4.748656,1.179504,9.710416-.932096,13.915006l-7.929626.178464c-2.098604,2.227438-3.351601,2.896627-6.596061,3.766436-5.330761,1.429127-.485074-7.863133-21.642692-2.499142,1.384806,3.34644,1.518648,6.113949-.846696,8.387662l-1.166008,5.899822-5.200598-.301003c.274183,14.423608-6.479937,9.653864-.443738,17.955556l-8.861867,2.177821-1.728377,11.013755-1.541913,15.427004c5.253123,2.932259,13.787904-4.069364,18.655794-4.614966l18.132621-2.032337,8.616478-2.487659c8.716137-2.516432,12.397096-.813714,18.458515-3.444151,8.638762-3.748911,7.035309-1.22043,18.705239-9.764818,4.60499-3.371642,7.465365-8.309159,13.162325-11.029122,1.610738-.769033,2.021916-4.57048.785603-5.949683-2.488751-2.776393-13.378728-15.873829-8.824466-17.963102l4.11117-1.886004c2.492894-3.820224,1.268027-9.226583,1.134664-13.723892l-.292831-9.874939c21.15195-2.162468,18.010141,4.002508,30.163654-11.806371,5.705321-7.421289,9.216525,3.710886,14.664331-2.299094.796729-.878946,4.076805-2.146953,4.368799-1.298565l1.516261,4.405503,7.569945,6.658123c6.104352.234987,8.344299,5.016842,10.796147,9.887661,4.249601,8.442218,12.673407,6.79026,10.33081,11.601567-1.265625,2.599385-2.658077,7.377948-.757874,9.026561,2.385414,2.069581,6.899161,4.071921,6.570766,6.407356l-.670751,4.770156c-.167586,1.191814,3.978586.615601,4.773867-.446397,3.321051-4.434844,8.116321-7.596223,14.514889-6.207789,1.642201.356343,5.186128-1.698047,6.840408-2.150406,5.263424-1.439269,9.17562,5.876409,12.501856,8.00019,1.951521,1.246034,8.986849.958889,7.228745,4.831798-1.299139,1.693881-5.708698,4.385849-5.63761,7.031428.14286,5.316561,7.88853,6.424393,9.325047,9.590692.539089,1.188234-1.238933,3.93713-1.723157,5.399462-1.772856,5.353932-5.397974,7.590585-11.276836,8.411156-2.886787.402938-6.601133,4.240875-10.630057,1.778103-1.199623-.733297-4.262635-.638831-5.296135.08063-1.059394.737487-2.069966,2.904773-2.687007,4.904667-1.189176,3.854238-6.328309-.424687-8.001499-1.132221ZM501.243972,28.912685c-.061277.382598-.194832,1.075057-.209424,1.438115l-.107299,2.66969-.280023,1.793733-2.369762.898345c-.553127.209683.181398,1.546686.383309,2.038051l.005234,2.94424c-1.621282,3.712493-11.622689-3.625367-10.519528.619551,1.583292,6.092437,8.293174,6.626262,12.581874,4.358981,1.163387.456976,2.811198,1.261422,3.834202,1.898333.11872,1.084246,1.341113,2.377301,2.514105,2.391867,1.210971.015037,2.448697-1.30018,2.497825-2.436331.931554-.727229,3.651529-2.404605,4.012075-3.574755l2.608454-8.465748-11.601054-7.897159-.959598-1.536168c-.256409-.410471-2.091489-.157668-2.139465.326569l-.250926,2.532685ZM531.814493,34.675504c.26739-.993727-.255045-3.189658-.898103-4.015736-2.892407-3.715613-7.113377-4.845869-11.064863-2.731668l-.042489,8.326517c4.406551.012877,10.77777,2.983447,12.005456-1.579113ZM326.206729,58.644381l16.285376-.000805c3.986564-1.826781-6.032384-3.889183-10.491701-7.772383-4.111692-3.580485-2.190326-10.765758,1.761177-15.461398l-9.512898-1.766268c-.798225-.148207-3.446797.904991-2.998376,1.462019l1.709173,2.123133c.646321.802859,1.28368,2.938288,1.191959,3.964837-.09168,1.026079-2.791854,1.875146-3.852966,1.974584l-6.10448.572053c.397164,4.133047,2.48997,6.083405,5.221055,8.613176l6.791681,6.291052ZM475.263372,81.143399c1.713396-4.112937,1.178783-5.951424.920455-8.768245-.461955-5.037182-2.418696-7.304362-6.41965-9.84836l-9.125669-5.802536-4.473625,4.190164c-1.224043,1.146484-5.201749.737544-7.255166,1.164942-.572783.874254.432875,4.446557,1.636058,4.957434,1.048246.44509,3.00439.850819,4.438505.952371l10.499676.743495,9.779417,12.410735ZM387.995032,89.845937c2.426189-6.484289.803643-12.864389-3.36788-17.965983l-6.516238.487546-7.873194-7.349529c-1.249188-1.166102-4.749912,2.084784-5.450241,3.792554-.579714,1.413647,1.400636,3.917876,2.199581,5.813047,1.3559,3.216317,2.360534,7.475311,6.199364,8.390593,9.679707,2.307905,3.766676,9.098924,10.263179,9.687434,1.32601.120122,4.06865-1.581414,4.545428-2.855662ZM535.486836,76.220231c1.415763-4.289319-6.663407-11.75252-9.06448-11.47916-.6833.077793-1.922639,1.577451-1.495417,2.115901l1.913763,2.412016c2.476828,3.121676,3.60199,7.704804,8.646135,6.951243ZM444.09499,156.640829c4.52752-1.702028,8.587207-3.547195,10.965121-7.6697l5.217102-9.044705c.769578-2.649502.671576-7.643019.625527-10.790692-2.700527-3.427627-5.505117-10.114815-1.866781-13.159433,3.368206-1.75414,9.273157-1.807156,9.639586-7.478127-17.361747-.968498-12.96336.831786-30.549546-3.630648l1.309964-17.743578c-3.582263-.804934-5.886682-4.175488-6.620578-6.474788-.219127-.686526-2.796811-1.250408-3.025641-.537679-1.529384,4.763533.481222,7.711434-1.418262,8.343574-.871068.289888-2.788792.959703-3.784252,1.245909-2.446374,2.255472-4.823693,3.267602-8.796271,3.442668l-7.438916,4.696194,8.393622,2.449303c-.110618,7.666928,10.699103,4.669518,4.48157,11.492898l-6.950889,7.628196c1.648043,1.994642,2.579372,3.870259,3.552207,6.57754l3.516758,9.786704c12.647124,14.319435,9.951338,25.677633,22.749678,20.866362ZM201.840946,100.864549c2.271542-1.977341.381852-5.817035-1.003826-7.663799l-2.361381-3.147133c-.563775-.751372-3.702948-.412139-4.275119.278305l-3.719106,4.487879,4.550196,2.206226c1.772838,1.228764,5.039268,4.774213,6.809236,3.838522ZM246.308452,107.828694c1.86047-11.336637-10.593253-.076649-15.694006-10.950567-.671273-1.431037-4.033341-2.842223-5.705157-2.277232l-.251607,10.417112c11.956136.43243,5.315582,5.402618,21.650769,2.810688ZM168.797829,120.342609c1.337687-6.153086-.593481-10.209464-5.380573-11.504274l-2.79271,11.580813c2.999725.511804,6.369551.641306,8.173283-.07654ZM129.959462,124.063307c.640277.558291,4.455908.467938,4.453323-.362495-.01954-6.277592-4.005469-7.0239-11.562473-11.216381-2.005628,2.184345-.670489,4.795405,1.225826,6.4489l5.883324,5.129976ZM538.588723,130.478398l1.894856.224872c.42242.962065,1.235309,2.385305,1.921079,3.024913.68469.638601,3.221113-1.112573,4.18206-.964771,3.30195.507869,9.385333,1.577031,10.076357-3.231551l-.143937-2.131049c1.123469-1.931035,2.952446-5.400407,2.625894-7.790969-.173223-1.268098-3.79552-2.430537-4.980377-1.928613-6.325966,2.67978-1.442867,6.014888-10.593688,6.22954l-11.884407.278773c.09448,1.820863.850039,4.568225,1.843773,5.306111,1.111611.825414,3.623966,1.229033,5.05839.982743ZM643.983248,152.222881l.136086,2.120575-1.154871,6.176736-3.650313,3.646984c-1.570591.28281-3.108738,2.120665-2.961382,3.793645.363755,4.129812-.634676,7.875709,4.327664,9.386314l.923747-9.249948c1.375056-.629184,2.310367-2.246309,3.471715-3.945037l4.942606-5.604118,8.356686-.219658c-.033986.2045-.330834,1.239999-.009978,1.357679l2.36797.868499c4.250367,1.558904,7.759856,1.187517,11.097593-1.606859l3.016967-2.525825c.747959-.626197.167081-3.849729-.772025-4.170819-12.540465-4.28772-2.194792-1.553034-10.858704-5.090368l-.405641-5.726374-.097387-1.518119c-.048858-.761621-14.506225-2.45599-19.84546.901032-3.829629,2.407863-2.104368,10.040633,1.114728,11.405662ZM507.289309,141.366497c-.461905-3.823929-7.613218-2.94798-7.420077.025861.14277,2.198269,7.778034,2.93752,7.420077-.025861ZM488.858776,194.641826c4.639328,2.03683,6.684218-1.46651,8.89688-3.335971,3.33413-2.81698,4.568252-5.513583,2.712045-9.973765,11.30675-4.798347,4.302488-6.609195,7.720203-16.644873,2.912479-.318322,5.610731-1.267645,5.573977-2.907727-.026769-1.194536-1.425364-3.086384-2.541359-4.37599l-1.668717-8.251884c-4.269303.965321-5.319951,3.841336-5.093236,8.108544l-4.831568,6.951791c-.782551,1.125955-1.897531,2.564497-2.021984,3.495565-.420065,3.142611,1.632555.148474,3.714894,7.786784.37859,1.388721-1.615295,4.481281-3.36996,4.690962-1.416655.169289-2.449195-.80963-5.428238-3.092819-.935553.81369-3.859244,15.332398-3.662937,17.549383ZM218.793907,195.605413l-11.316216-.612075c-1.483364-.080233-2.589522-5.397851-1.107312-5.835155l12.275477-.159582c1.493115-.019411,4.036472-2.133095,4.417021-3.671653.336617-1.360943-1.570138-3.555077-2.81587-4.999112-5.943216-6.88929-2.720539.718677-15.961688-5.735766-4.685103-2.283769-8.461466-5.050723-11.193497-9.850532l-7.162733-1.65369c-3.73053-3.058204-.352484-7.290439,1.88883-9.120911.290569-.649619-.251237-3.187791-1.058333-3.166084-5.61794.151094-8.05052,5.275681-12.369249,11.105678-1.261171,1.702496-2.540533,3.454528-2.925233,4.715296-.329033,1.078333.785637,4.088702,1.706405,4.021218,1.416863-.264538,5.151747-.450443,5.191546.815884l.346564,11.026933c1.00358,1.239763,4.45767.247429,6.412625-1.416116l7.915326,3.881052,1.037187,7.364377,8.357723,6.841104c2.57923,2.111195,5.90131,3.34189,9.000679,3.161811,3.36438-.195476,5.740321-2.560115,7.360749-6.712676ZM111.043129,168.049852c.939614-.707364,3.829691-.748513,4.56433-1.412893.732142-.662121,1.038955-2.472278,1.842695-4.040342.766107-1.494644,5.282119-.466205,6.861773-.708791,2.358902-2.39174-2.177225-8.369482-5.037552-7.183221-5.590234,2.318433-10.246508,2.352231-14.622556-3.331355-3.091152,2.571125-1.439161,5.612735.126909,9.476416-3.098093.253061-9.763212,1.382147-12.616325-.026821l-14.924162-7.370077c-12.469334,5.001794-4.923292,4.082413-16.242661,9.234073,7.22536,5.961204,17.03927,3.415268,25.235111,5.297474,9.967188,2.289003,17.710831,5.411791,24.812436.065538ZM379.800803,194.409679l-3.671946.909917-4.301452,2.580087-7.391506,1.493189-.955986,6.174813-7.327919.913526-4.149754,7.580448c1.495437,16.16183-5.181395,13.784763-7.339904,22.874717-3.516591,1.025459-5.22205,4.380738-4.815652,7.980294-.664635.096922-2.33763.136384-2.543967.805407l-1.023566,3.31879c-1.022186,3.314315-2.341575,7.180711-3.877526,10.058746-5.163061,9.674445,1.633743,7.312599,1.004106,15.792839.110076,2.191393-1.081982,4.15-3.301975,5.099334-2.213982,2.886965-.398786,7.164099,3.220434,8.373772l7.614037,2.544884c2.151421.719082,4.215496,1.566044,5.909458.96236l2.070198,1.903562c-1.832483,2.926048,2.689765,11.811689,4.223631,13.784205,6.297137,8.097974,11.21792,15.770201,16.778842,24.524409,1.559488,2.455003,6.251911,5.57241,8.672987,7.207043l8.834038-3.69658c3.831614-1.603329,8.876402-6.576024,11.489796-9.421276.696782-.7586,1.505261-3.688696,2.270014-4.425182,3.212705-3.093952,14.860402-17.251305,15.440191-20.894429l1.023322-1.213243c1.388657-.388734,4.860793-1.884697,5.391328-3.371541l2.693186-7.547764c.184172-.51615.71954-1.473712,1.049493-1.911406,2.589419-.763663,4.837976-2.759721,7.026432-5.004237l13.316087-13.6572c2.821446-2.058898,4.645421-4.605345,5.917167-7.97535,1.323178-3.237361,2.223882-6.163518,2.461442-9.258848l2.444801-5.008345c.350741-.718518-.167169-3.452136-.957018-3.643094l-2.220614-.536868c.249891-2.560657-1.648658-4.147995-3.39638-6.53369-.8669-1.183346-1.099857-4.234533-2.620553-4.307176l-3.372601-5.228593c-.538725-5.54104-3.986362-10.053637-5.990794-14.921495-2.195227-5.331214-4.17511-10.094111-9.549732-12.748206-1.21227-.598643-2.85225-2.428101-3.885282-2.866611l-2.125156-.902103c-.220255-.093496-.63107.022796-.999769.073209l-2.85537-1.09297c-3.185005-1.219147-8.295016-2.805276-10.567378-5.295838-4.195445-4.598305-7.860936-9.195553-10.872419-14.166868-1.074189-1.773257-1.162402-3.841408-3.090369-3.644758-1.776752.181226-3.182399,2.272255-2.771423,3.825427,1.175539,4.442629-2.784136,3.531407-4.662539,5.627402-11.477639,12.807192-1.712565-.374251-8.212438,14.865294ZM708.156886,186.510437c-3.669336,1.210249-5.734108,5.475189-4.69868,5.505748l2.513333.074176,15.103833-.036605c.523264-.001268,1.297928-.351366,1.756657-.602866.459035-.251667-.299723-2.304612-.81012-2.439353l-2.778585-.73353c-.919862-1.895784-2.830044-4.49076-4.653286-3.889404l-6.433151,2.121832ZM289.101853,214.838919l1.088748,1.121731c5.129448,5.284841,2.618222,14.354598,5.27981,10.231109l1.488273-2.305721c.389258-.462089,1.090281-1.275732,1.363537-1.770217,1.400808-2.534902,2.350052-8.552394,1.209875-11.486543-2.762051-7.107905-9.43972-10.177918-14.827688-14.036315l-3.592856-2.572892c-.06651-.426996-.213136-1.753004-.661348-1.602952-2.348704.786297-6.9713,3.315091-6.231508,5.162331l2.075776,5.183156c1.289669,3.220266,1.769997,5.706293,4.307678,7.795868,2.805141,2.309807,5.369026,3.886879,8.499702,4.280446Z"/><path class="cls-1" d="M454.485131,324.398014c47.096826,30.915811,71.331343,86.17377,61.972589,141.752192l-7.834154-.615812-17.033515-1.138772c-7.764738-.51911-16.113646.977064-23.324778-.796762l-13.782391-3.390253c-6.491749-1.596869-16.492792,1.438826-22.580683-.924921l-4.623505-1.79517-20.316966-.015649c-2.772738-.002136-6.461682-.57229-7.740118-2.588721-3.400177-5.362972-2.584423-11.326904-1.228688-16.874139.699406-2.861748,1.660945-5.988965,2.712078-9.083957,3.373763-9.933817,3.896985-19.91304,4.743625-30.228583.16625-2.025603,2.127431-6.040315,1.866287-8.367783-.927883-8.26984,1.542292-14.846306,6.458173-20.980947l7.985598-9.96541c2.31653-2.890851,4.474124-6.069521,7.791568-7.948269,10.257404-5.809016,1.655369-5.934599,17.737498-20.367152,2.560911-2.298233,4.085914-5.915653,7.197382-6.669891Z"/><path class="cls-1" d="M239.424834,465.153976c-.075098-.198639-.643116-1.036904-.999769-.949166-7.406488-55.457595,15.677959-107.671262,61.684715-139.46951,2.821076,2.834259,9.273309,2.935169,12.003176,4.867217l13.558871,9.59621c4.368879,3.092048,5.477137,15.520785,8.490838,20.190294,2.950878,3.656153,5.261927,6.133684,6.482651,10.75496.590738,2.236346,2.950381,5.925615,3.09303,8.15482.313829,4.904261-.025298,9.481112.529054,13.996424.933187,7.600992.53222,14.37776-.022947,21.988331l-.954129,13.079808-.455018,28.564704c-2.623611,1.904723-6.318993,2.180503-9.781131,1.892214-3.433686-.28592-7.255872,1.158079-10.109025,1.323224l-11.787943.682305-15.91717,1.211516c-3.491775.265772-6.774507.839985-10.006821,1.546622l-8.552623,1.869745c-5.303042,1.159333-14.444213.4241-19.314335.315583-.522731.016908-1.937989,1.535177-2.384574,1.36038-7.988752-3.126877-2.326689.705024-15.55685-.975678Z"/><path class="cls-2" d="M291.484219,710.577816c1.188902,6.403373,11.848846,4.41753,13.034759,9.314214.409369,1.690303-2.069417,3.618904-4.506247,3.630411l-41.816014.19746c-.831424.003926-2.941276-1.564377-3.008538-2.317839-.084217-.943379.930894-2.885344,1.910169-3.375445l8.224705-4.116246c1.980329-.991102,3.053591-6.210464,3.04818-8.694571l-.134307-61.66029c-.016256-7.463091-12.204054-5.31347-13.039531-10.757143-.318339-2.074186,2.591106-3.302876,5.013599-3.218696,13.367217.464504,25.667786.399327,39.089863.017314,1.409823-.040126,3.911509,1.290834,4.046118,2.420278.676243,5.674077-11.14172,3.768941-11.790734,9.863292-1.228979,11.540319-1.254908,22.511322-1.281331,34.51222,13.031226.745075,24.773619-7.358922,29.101087-18.609567,4.773291-12.409705.52112-25.326223-9.87854-33.725232-17.962533-14.506962-38.626973-15.382948-59.20036-33.390673-6.940927-6.075339-10.692525-13.883292-13.86152-22.224814-3.475858-9.149256-2.624242-13.256443-.011968-21.462888,3.717898-11.679762,10.462688-21.281495,21.639161-27.426158,19.205482-10.558895,33.109411-9.021577,54.533986-9.020581,1.727278,1.808025,4.216235,4.574469,4.851588,6.641467l6.360499,20.692636c.442189,1.438575-.7123,4.592058-1.755491,5.337409-5.125409,3.662058-9.587911-11.008463-21.43903-18.906816-9.640359-6.424959-22.043323-5.698998-31.614832.553727-8.928578,5.832722-14.281588,17.109072-12.207135,28.168168,1.757069,9.367092,6.743587,16.638387,14.991495,21.327838,20.150317,11.456714,43.355356,17.075796,58.229583,31.095154,17.161979,16.175626,18.582833,40.871176,4.264942,59.380407-5.073841,10.788902,20.248532,42.318165,27.415557,50.594677,15.082892,17.417789,25.75193,13.104645,28.39651,22.320989-4.145992,5.666315-10.5788,3.654104-16.122828,3.322634-30.60194-1.829648-44.20186-14.417603-60.568852-38.070068l-12.053917-17.419503c-3.540432.257733-7.225884.856994-10.965727,1.58913-.010776,8.246295-.42388,15.18208,1.105101,23.417105Z"/><path class="cls-2" d="M478.562452,618.080828c-.420492,2.01435-4.849691,3.141988-6.797548,3.044246-10.188349-.511241-19.623735-.757155-29.577212-.244002-5.038578.259765-20.555654,2.278222-21.500397-2.903309-1.158044-6.351397,13.140223-4.981418,14.696451-12.643813,2.354141-11.591081,2.453071-22.799041.68582-35.083073l-46.80385.328336c-1.578335.011072-3.477573,3.717283-3.472414,5.094173.035376,9.44143.092911,19.414671,1.009818,28.708822.919642,9.321884,20.163946,7.100139,15.355704,14.96973-1.222259,2.000456-6.456146,2.187182-9.176194,2.02444-9.61388-.575205-18.330071-1.102444-27.801947-.51257-5.196698.323631-19.262347,2.230817-20.785108-2.329059-2.517149-7.537548,16.031607-3.598432,16.043998-18.014677l.059824-69.604599c.012139-14.124024-16.293882-9.299424-15.894178-15.9533.193455-3.220459,5.507258-4.10376,8.312712-4.016186l26.087422.814335c2.25471.070382,19.262675-2.711729,18.720304,3.610835-.486617,5.67263-11.836931,2.651286-11.841199,13.57738l-.010036,25.690242c-.000987,2.527607,2.555681,4.017314,4.922783,4.017571l41.126776.004456c3.150743.000341,5.426622-2.470907,5.324972-5.826921l-.705761-23.300914c-.10125-3.342799-2.106727-6.370689-5.091311-7.374369l-9.070275-3.050226c-1.197369-.402661-2.649664-2.676083-2.765609-3.823186-.596617-5.9026,15.73112-3.876462,20.191701-3.621107,12.747024.72973,19.660012-.616855,33.640878-.549193,1.394062.006747,4.004068,2.928877,3.831332,4.299884-.700017,5.556036-13.686393,4.050889-14.163517,10.082816-2.071365,26.186764-1.473374,52.223817-.113433,78.409892.512894,9.875933,17.374365,5.479297,15.559495,14.173349Z"/><path class="cls-2" d="M159.210873,623.523077c-16.004734.798435-30.165144-2.084904-42.70742-10.873913-13.652999-9.567349-22.694327-24.128718-23.874268-40.817265-1.132833-16.022268,2.916407-30.569397,13.798635-42.446452,18.990233-20.726275,48.748423-26.794229,74.71745-15.903469,20.18261,8.464081,33.33508,26.764473,34.607859,48.628743,1.909388,32.800182-23.205216,59.749257-56.542256,61.412356ZM183.031587,595.588389c6.728607-21.00784,5.496395-49.469102-9.274452-66.92814-5.545382-6.554602-13.457842-11.186845-22.179636-11.053016-12.789853.196251-23.060396,9.224929-27.048554,21.271238-8.041562,24.289695-3.590074,60.352367,19.981038,72.497612,15.439923,7.955571,33.212257.78898,38.521605-15.787695Z"/><path class="cls-2" d="M571.289849,514.597627c1.334245-5.248683,14.760068-2.789675,17.104208-2.854667l27.716825-.768462c1.191123-.033024,3.583414,1.718108,4.088869,2.741743.589672,1.19419-.874392,4.217306-2.128542,4.770474l-10.711479,4.72451c-2.486421,1.096685-3.629364,6.827979-3.797982,9.58421l-1.098442,17.955226c-1.374258,22.463737-.013947,51.072091-20.450312,65.333673-15.517548,10.82897-44.819301,10.224924-60.149983-1.993725-24.126364-19.228863-11.901179-62.475252-17.477515-89.819399-5.085317-4.743883-13.494189-3.906159-14.482672-8.951918-1.275684-6.511793,20.741004-4.083238,25.051139-3.774681,8.301774.594314,16.046765.202652,24.580086-.386628,2.467013-.170363,7.60559,1.281041,7.822629,3.60609.679445,7.278618-14.602653,4.081509-15.607272,13.605418-1.351737,12.814629-1.151395,25.337134-.640314,38.293564.417933,10.595042.642676,26.970195,8.939881,34.391316,10.141676,9.070837,25.590704,10.956171,37.049229,3.408395,7.150866-4.710304,10.66068-13.118011,11.601068-21.561903,1.916619-17.20963,2.13248-34.206761,1.293007-51.377441-.704946-14.419037-20.848757-8.482515-18.702428-16.925794Z"/><path class="cls-2" d="M690.805184,589.271197c-.617194-1.738219-3.753085-3.82633-5.462799-3.821227l-27.474014.082009c-6.01527.017955-9.632273,16.124973-8.686185,20.979015,1.164459,5.974425,12.91581,4.903948,12.727675,10.329854-.049803,1.43635-2.751896,3.929053-4.243837,3.929755l-19.484533.009169-18.852696.612471c-1.425735.046318-4.020266-2.170493-4.065049-3.429431-.269349-7.571858,13.963613-2.535467,21.15115-19.483133,11.250583-26.52802,21.552044-52.757509,31.495799-80.076181l12.460877-8.814353c.876658-.620115,3.134209-1.287849,4.008117-1.263366,1.0467.029324,2.466571,1.952419,2.985849,3.269946l35.705235,90.592218c4.319064,10.958437,18.873933,8.113446,18.551092,16.537561-.170218,4.44163-20.229815,2.2874-24.797043,2.048731-8.489808-.443651-16.266095.022336-24.874532.614957-2.357452.162292-6.742484-.800494-7.208592-3.197073-1.440666-7.40746,14.440999-5.327136,10.997921-15.023959l-4.934434-13.896965ZM681.895293,574.173243c1.14237.001872,2.87996-2.569495,2.538659-3.524946-3.873816-10.844508-7.144914-21.510436-13.040957-32.088726-5.773287,10.936477-8.756956,21.628113-12.296719,32.163094-.36561,1.088122,1.882622,3.416294,2.98214,3.418096l19.816877.032481Z"/><path class="cls-2" d="M4.132522,653.63723c-2.586059-1.491533-5.147473-5.290327-3.725761-8.017023,2.162364-4.147189,5.986313-9.690755,10.513076-10.91374,6.762449-1.826996,13.099298,9.414127,20.127838,6.875635,5.013727-1.810803,5.552749-17.577823,5.54409-22.362569l-.128366-70.933015-.517249-18.474455c-.093111-3.325639-2.369156-7.142536-5.622817-8.150599l-8.847848-2.741277c-1.125028-.348561-2.755327-2.349009-2.860056-3.513215-.584234-6.494578,17.536201-4.154155,22.549591-3.818324,9.300435.623007,18.193913.166243,27.752365-.485239,2.153478-.146776,6.49666.852811,6.867047,2.746325,1.589518,8.126017-14.02823,3.869272-14.131831,16.05084l-.461912,54.311972c-.069934,8.222837-.083535,16.094736-.760435,24.453979-2.591912,32.008308-38.259537,55.374394-56.297733,44.970704Z"/><path class="cls-2" d="M427.904992,681.054374c-.291752,10.499444-.817526,19.186094,1.176833,28.870843.999045,4.851436,21.057322,8.094296,29.461135,1.953276,7.49202-5.474735,8.668125-13.714085,13.737045-13.715464,6.896134-.001876-1.265436,19.814196-3.357355,23.850771-.56937,1.098659-4.089764,2.145817-5.367301,2.10458l-19.661157-.634631c-8.368348-.270117-16.242261-.137286-24.469557.008873l-26.614066.472801c-.950841.016892-3.004157-.9094-3.469034-1.687825-.464799-.778295.19393-3.407308.918174-3.944771,6.112797-4.536324,15.345954-1.717838,15.356094-14.778877l.043106-55.524116c.011079-14.270512-12.621326-9.049278-14.122237-15.237686-.309083-1.274379,2.287278-3.740692,3.638047-3.681578l17.68334.773887,43.832322-.101509c1.989624-.004608,6.433635-1.71822,6.924519,1.559076l2.287655,15.273099c.230453,1.538578-1.401169,4.965655-2.800059,5.345785-4.923264,1.337832-7.474504-9.52612-11.392467-12.859754l-20.085486-.155053c-1.240132-.009573-3.852697,2.259054-3.855833,3.530816l-.070574,28.6246c27.31844,3.415812,19.467929-9.769513,26.629551-10.68092,1.248183-.158847,3.307898,2.435164,3.307351,3.809958l-.009228,23.203238c-.000556,1.398554-2.093116,3.684672-3.357268,3.652089-1.60165-.041282-3.368609-1.369182-4.065616-3.12179-3.862029-9.710983-8.269775-6.205077-22.297934-6.90972Z"/><path class="cls-2" d="M527.292275,681.02139c-3.298755,2.1733-.674683,26.123115.571414,30.77277,9.214367,3.73861,19.599654,5.535479,28.631446.417616,7.637453-4.327761,8.615804-14.492568,14.28184-14.083469,6.186182.446654-.475536,16.980087-1.789358,20.76206-1.084876,3.122928-4.038833,5.281056-7.471732,5.207944l-37.034024-.788733-33.809246.714587c-1.020122.021561-3.055849-1.568261-3.078519-2.503673-.210545-8.687549,15.522714-1.875788,16.100554-16.250038l.603574-15.014401c.385155-9.581036.431815-19.01651-.079007-28.446541l-1.037388-19.150703c-.33386-6.163227-11.98033-4.862349-13.281216-9.842076-.36029-1.379173,2.303235-3.739122,4.105312-3.655156,20.939769.975668,41.247885,1.512828,62.189578.460804l3.931023-.197478c1.032687-.051878,2.34296,2.465311,2.455337,3.516691l1.627179,15.223585c.149856,1.402023-2.187351,4.080272-3.424237,4.015878-5.009953-.260824-5.747479-7.845916-10.326111-13.093963l-20.154062-.071648c-3.100244-.011021-3.907032,3.764441-4.05959,6.335566-.517723,8.725355-.904704,16.380462-.186487,25.452368,22.567715,3.753084,21.443825-5.81692,24.294445-9.409954.580607-.73182,3.311045-1.196243,3.987757-.53143.810962.796702,1.950117,3.285071,1.839848,4.483063-.668958,7.267754-.70613,13.643474.028906,20.895513.185378,1.828985-1.677258,4.747337-3.218924,4.792482-6.200391.181566-3.770479-9.727775-11.391706-9.826441l-14.306607-.185218Z"/><path class="cls-2" d="M193.595505,661.984488c-2.613941,70.04324,5.690596,44.848662,15.580739,57.664033.918097,1.189644-2.109302,4.42953-3.77217,4.390164l-28.920066-.684636-17.975429.502046c-1.756844.049068-4.644652-1.872292-4.687852-3.261991-.236418-7.6053,15.583289-4.382378,16.519485-12.590684,1.066792-9.35334.7013-18.898619,1.022594-28.319883.456262-13.378903.346769-25.932651.085798-39.837529-7.610126-.560379-14.751625-1.29961-21.675858.77234-6.815137,2.039305-7.08487,15.764461-12.426733,15.184867-1.325108-.143774-3.83396-3.0472-3.733447-4.424879l1.698027-23.274002c.060043-.822979,1.710031-2.682714,2.518983-2.921995,4.043577-1.196055,5.522503,4.78211,14.745588,4.781283l65.839626-.005898c3.521772-.000316,6.592176-2.170612,9.053135-4.477203,1.05417-.988045,4.587674-.083058,5.336963,1.148744.952391,1.565692.950505,3.882275.74772,6.004506l-1.94456,20.350559c-.13373,1.399535-3.419726,3.521154-4.803967,3.255783-4.199869-.805151-2.855448-9.756235-7.206478-13.595021-3.99817-3.527468-17.632959-3.235814-25.164901-3.094184l-.837198,22.43358Z"/><path class="cls-3" d="M513.735162,786.296404c-.235232,11.271989-7.205803,20.581142-17.927445,21.45399-6.698137.545294-12.788268-.387428-17.484993-4.85694-9.959631-9.477817-8.946092-30.286276,3.315156-37.413393,7.255552-4.217448,16.544758-4.167407,23.905243.778115,6.277261,4.217702,8.360403,11.970454,8.192038,20.038229ZM502.433451,774.028065c-4.684643-6.107431-14.818719-5.923928-19.345776.33588-4.73442,6.54654-4.538264,15.480909-.047523,21.965625,3.082463,4.451136,8.379625,5.443084,13.50026,4.190998,10.237042-2.50314,11.623837-19.021187,5.89304-26.492503Z"/><path class="cls-3" d="M412.684803,789.848232l-9.061406-.476753.027214-6.183775,16.601245.097398-.039781,21.017459c-10.685169,5.20972-25.161189,6.050572-32.921413-5.01619-6.552075-9.343836-5.177198-23.364961,3.661821-31.214014,7.594594-6.744003,18.229586-6.780877,27.500641-3.66395.584209,2.430227.50853,5.690755-.053237,7.858156-7.153949-2.730576-13.531339-4.2717-19.648635-.47171-8.977806,5.576903-9.831151,19.109156-2.091409,26.19178,4.15833,3.80528,10.041733,3.902288,15.357229,1.743962l.667732-9.882364Z"/><path class="cls-1" d="M230.947942,410.122481l-2.844585,12.031279-101.110575-22.620147c-3.081315-.689342-6.313044.632033-7.804269-3.776656,3.665854-.336343,6.72047.589389,10.369669,1.064313l85.723537,11.156463,15.666222,2.144748Z"/><path class="cls-1" d="M528.165651,321.73863l-14.236002,13.160424-15.682975,14.465132c-1.627238,1.500877-8.303864-7.007846-8.583331-7.405418-.625856-.890347,1.690317-2.729847,2.694239-3.495599l47.503425-36.233776,39.799849-30.436653c-.776977,6.974611-7.433712,9.453675-11.74595,13.415915l-11.464388,10.533893-15.609826,14.266681-12.675041,11.729402Z"/><path class="cls-3" d="M457.874839,807.106024l-8.411127-13.891661c-1.602897-2.647315-5.625937-4.296024-8.686576-3.192791l-.287903,16.767777c-2.192364.417788-5.193445.42232-7.617751-.033816l.0451-43.160892,18.743592.075514c2.030553.008181,6.226674,2.192703,7.624697,3.881093,4.728519,5.710626,2.870566,15.95881-5.136111,19.396648l12.848414,19.729597-9.122336.428531ZM451.26842,781.24368c3.46635-3.24065,3.380494-8.42644-.630178-10.436285-2.58974-1.297781-7.425384-1.270764-9.986463-.46336l.004057,12.59771c3.726222.651016,8.013519.73177,10.612584-1.698065Z"/><path class="cls-1" d="M522.031479,396.373085c-2.652214-3.550813-3.703417-7.592642-4.189036-11.628728l89.573808-27.84397,14.540136-5.122943c.605097-.213195,2.600968.194609,3.114148.245907.515428.051523-.864159,2.037944-1.553876,2.311976l-25.881471,10.282969-75.603709,31.75479Z"/><path class="cls-3" d="M207.52224,806.533422l-8.64599-14.188878c-1.379695-2.264208-5.840612-3.391487-8.270891-2.221586l-.190367,16.401614-7.705493.027556.055225-42.915202,16.699667-.060474c6.317768-.022878,11.185863,3.810352,12.176777,9.36208,1.063144,5.956406-1.869663,11.953114-8.19913,14.118358,5.16616,6.279603,8.9618,12.145206,13.007574,19.489147l-8.927373-.012615ZM200.684645,781.768326c3.92764-2.560835,3.866041-9.018389.010118-10.939255-2.738947-1.364434-7.603164-1.30334-10.179015-.499294l-.003672,12.648323c3.345436.50273,7.284756.673092,10.172569-1.209773Z"/><path class="cls-1" d="M527.573316,422.011352l-2.955407-11.577063c6.205385-1.044417,13.040757-2.165949,19.938831-2.9952l91.602139-11.011932c-12.060025,5.776889-24.180829,6.407393-36.413667,9.186701l-72.171895,16.397494Z"/><path class="cls-1" d="M511.889664,371.940596c-2.966862-3.11389-4.339408-5.730115-6.593671-10.234919l88.788197-45.884789c3.886189-2.008341,6.468128-5.963127,11.9807-4.230392l-24.828808,15.875719-69.346417,44.474382Z"/><path class="cls-1" d="M639.464296,442.150027c-2.218877,1.075926-4.246537,1.866466-6.174279,1.837563-15.34428-.230058-29.660248,1.022968-44.912313,1.6148l-21.191538.822304-38.413306,1.664885c-.614775-4.421658-.616101-7.414162-.015117-11.738637l38.545943,1.52197,19.086539.876307c15.53147.713086,30.268906,1.928592,45.904001,1.568359,2.273026-.052371,4.260361.564321,7.170071,1.83245Z"/><path class="cls-3" d="M550.796521,763.858576l8.115751-.02554-.200042,27.362669c-.076944,10.524803-6.938571,16.699381-17.281899,16.814235-8.742903.097082-17.004946-4.831861-17.078187-14.653559l-.220999-29.636068,7.744962-.047894.297197,28.08205c.056643,5.352195,4.590459,8.908914,8.931495,9.225392,4.899386.357185,9.486785-3.643353,9.520511-9.152811l.171211-27.968475Z"/><path class="cls-1" d="M250.040205,361.52481c-1.576419,3.880105-3.299681,6.778885-5.92342,10.545617l-74.268489-47.677423-15.92591-9.314382c-1.433055-.838132-3.033004-2.83221-3.920952-4.633986,7.920325,2.033378,12.845994,6.300417,19.382114,9.657184l80.656658,41.422989Z"/><path class="cls-1" d="M149.307214,444.476457l-28.687537-.648297c-.425197-.009609-2.014545-.63106-2.289237-.803217-.274206-.171852-.70655-1.027954-.450638-1.223612.385651-.29485,2.089901-1.204287,2.80572-1.219594l29.253664-.625561,16.089424-1.011129,21.080476-.988773,39.391774-1.633591c.71044,4.010611.716274,7.072848.314127,11.534374l-16.981491-.390509-14.382281-.713418-28.727651-1.285881-17.41635-.990793Z"/><path class="cls-1" d="M238.141725,384.541258l-3.972977,12.088218c-31.322848-14.026283-63.173888-25.155661-94.737382-40.846322,34.820927,7.237117,65.283114,20.19061,98.710359,28.758104Z"/><path class="cls-1" d="M243.272098,336.118463l-11.641409-10.775372-13.958078-12.915352-11.465924-10.500269-12.926095-11.938283c-3.839133-3.545747-8.914169-6.284078-10.290975-11.923235,8.674386,6.013619,15.552429,11.421597,23.001339,17.021332l20.026111,15.054674,40.493749,30.85196-8.158086,9.386098-15.080631-14.261553Z"/><path class="cls-1" d="M480.769934,311.691454l11.40758-12.413894,10.993421-11.9332,13.36026-14.516507,6.642236-7.396629,8.085951-8.807281c2.939052-3.201238,5.619977-6.001279,8.950585-8.989812,1.018751,4.253297-1.815537,5.719725-3.75005,8.216216l-10.877693,14.037679-46.423069,60.882492-8.928336-7.600584,10.539115-11.47848Z"/><polygon class="cls-3" points="250.938497 763.779407 259.469369 763.881472 244.142171 806.582705 235.110723 806.750832 220.007626 763.828829 228.535291 763.664633 239.560949 796.768593 250.938497 763.779407"/><path class="cls-3" d="M598.065192,786.092576c-4.53548,5.260215-10.254074,6.04178-17.808924,5.305632l-.740664,14.965994c-2.1254.223826-5.102204.2228-7.859102.042974l-.018807-42.705926,17.781103-.101861c2.311382-.013241,6.688761,2.042104,8.335536,3.838212,4.625655,5.045119,4.817801,13.427859.310858,18.654976ZM589.134129,784.024535c5.065814-2.290468,5.618749-10.289309,1.222868-12.849709-3.045242-1.773714-7.853887-1.34987-10.988468-.827697l.097639,14.471758c3.098222.1957,6.873502.469141,9.66796-.794352Z"/><path class="cls-3" d="M136.114546,797.943194c-2.067301,11.519166-19.218128,11.312674-28.161869,7.78175l.218887-7.886268c7.432269,4.769125,19.288345,4.614312,19.839493-1.511409.123095-1.368137-1.6526-4.139957-2.898315-4.854301l-11.483562-6.585147c-3.858583-2.212671-5.83587-6.511896-5.852715-10.404444-.050121-11.581401,16.590819-14.075825,26.213612-10.708896l-.022041,7.402429c-4.97025-1.668649-16.780964-3.630923-17.771522,3.438667-.927989,6.623039,22.556046,8.6284,19.918033,23.327619Z"/><polygon class="cls-3" points="169.501039 788.291229 155.142866 788.48995 155.183921 800.248318 171.700791 800.446978 171.910059 806.789491 147.319619 806.708378 147.253862 763.616566 170.992492 763.584403 171.283713 769.783539 155.229679 770.040781 155.195271 781.692357 169.269361 781.835776 169.501039 788.291229"/><path class="cls-3" d="M354.778319,788.245404l-15.052355.262802.021243,11.727754,16.973038.236453.069012,6.285441-24.714027-.01806.04992-43.149361,23.608249.055922c.543477,1.454716.566741,4.313361.193041,6.152694l-16.121939.246707-.05495,11.635941,15.049247.244957-.020479,6.318751Z"/><path class="cls-3" d="M300.003304,797.334526c5.561295,5.307908,12.998174,3.788751,19.598333,1.547154,1.708756.103336,1.802571,5.558702.209373,6.591076-3.024769,1.960016-7.007561,2.179428-10.514103,2.4279-12.938333.916803-21.91406-8.464189-22.148773-21.041695-.19425-10.40922,4.604462-19.379016,14.870258-23.041089,5.588481-1.993555,12.112306-1.769167,18.010413.343803.815626,2.223355.871592,5.46888.37365,7.851895-8.82067-4.139937-18.226567-2.915614-23.005785,5.429312-3.377021,5.896569-2.60148,14.920825,2.606634,19.891644Z"/><path class="cls-1" d="M243.599281,275.807627c.222925,1.292908.766565,2.765126,1.689818,3.75501l10.261237,11.001777,7.540796,8.325287,10.574179,11.353968,11.589865,12.525079c-2.61106,2.82856-5.719107,5.696734-9.054196,7.897799l-28.351189-37.378649c-6.027704-7.947019-12.243444-15.29835-17.276323-23.397511,1.311754-.871425,12.646593,3.717857,13.025814,5.917241Z"/><path class="cls-3" d="M581.487191,478.102345c2.338546.225784,3.475356,1.223077,3.594116,3.482236.155183,2.952025-1.756317,2.883078-4.665217,2.98495l-30.994309,1.085451c-9.594377.336004-19.188604-1.974693-28.882427-.892742-10.997467,1.227454-5.488396-6.169803-32.960434-2.721697-3.090659.387919-6.328918,2.401496-9.810072,2.249751-8.148841-.355212-16.529517,1.482676-24.164165-.514215-2.723609-.712377-5.934581-2.666976-8.877159-3.052041-11.076232-1.449436-20.318874-.87734-31.078894.042352-3.813828.325979-7.42605,2.365406-10.895507,3.066518-11.197877,2.262882-12.127362-1.350345-29.618339,3.261648.277374-.830546.409874-2.42471,1.175209-2.488562l4.741797-.395609c6.409137-.534716,12.381185-2.391961,18.935006-1.945327,3.930857.267882,7.902559-2.730959,11.39702-3.290676,6.251632-1.00134,35.493066-1.55175,38.623506-.04648,14.628088,7.033903,15.802684,1.70554,32.866599,2.406328,1.789341.073485,4.760064-2.177336,6.326161-2.408312,6.242221-.920634,13.671092-.568297,20.232284-.52855l4.311981,2.506088c16.674498,3.319592,11.921208-.331162,28.163981,2.565216,10.886387,1.941238,15.80448-.041308,22.638433-.832345,5.974909-.691601,12.607664-.33743,18.819571-.451256l.120857-4.082727Z"/><path class="cls-3" d="M164.486653,478.285368l-.369638,3.725859c11.301918,1.062165,33.242768,3.144095,43.407661,1.43143,10.766981-1.81411,11.634713-.502359,17.489482-1.132461,16.337876-1.758316,13.823634-4.47475,26.316205-4.305737,4.629184.062629,7.969251.937588,12.235707,2.864772l10.491891.689919c4.085546.268655,16.764814,3.066382,24.314663-3.436012l35.753943.059375c12.994025,6.434231,20.819706,1.731003,33.883756,9.081994l-.718595,1.539738c-.570302,1.22199-4.817888-4.425467-16.239023-4.010523-10.433121.379048-10.88376-3.557927-25.038654-4.496254-7.674995-.508775-14.907008-.387293-22.521662-.195736-3.71521.093461-7.333803,2.40684-10.68092,3.413151-7.376494,2.217745-15.625799.662013-23.46041.723963-9.273707.07333-8.884695-5.822516-29.060903-2.196712-4.30069.772864-8.349672,2.319418-12.952427,2.468127l-30.837294.99631-32.485905-.864068c-1.45754-.038768-2.030404-2.638292-1.991599-3.979221.028764-.993952,1.202096-2.138996,2.463722-2.377914Z"/><path class="cls-3" d="M397.992922,438.010007c-1.355735,5.547236-2.171488,11.511167,1.228688,16.874139,1.278437,2.01643,4.96738,2.586585,7.740118,2.588721l20.316966.015649,4.623505,1.79517c6.08789,2.363747,16.088934-.671948,22.580683.924921l13.782391,3.390253c7.211132,1.773826,15.560039.277652,23.324778.796762l17.033515,1.138772,7.834154.615812c3.190369.250783,6.477416.089602,9.949876.04059l7.125353-.100571c6.490812-.091614,12.566211.185479,18.003046,2.813353-1.322342.460463-3.185307.238016-5.209154.19069-10.414296-.243528-20.146913-.150024-30.76836.340933-1.846927.085371-4.420006-1.458358-5.940111-1.526748l-18.978324-.853837c-8.115743-.365128-16.88068,1.291183-24.667882-.851061-6.123823-1.684652-11.536981-3.78344-18.261386-3.4127-11.229885.619143-16.930521-1.331738-20.268141-1.43919l-24.479249-.788089c-2.82468-.090938-7.515059-5.450812-7.616238-8.326019l-.394679-11.215557c-.039155-1.112671,2.092353-3.119293,3.040451-3.011994Z"/><rect class="cls-3" x="268.342239" y="763.580945" width="7.608183" height="43.198684"/><path class="cls-3" d="M238.425065,464.20481c.356653-.087737.924671.750528.999769.949166l-6.390739,3.58072-32.396787.216059c-3.099738.020673-7.379618,2.170125-10.010029,2.452008-5.921957.634615-10.646408,1.415912-15.811727,3.625096l-6.280099,1.003587c-.052319-.059342.253161-1.286426.572163-1.399182l6.639801-2.346923c2.613953-.923935,6.115007-2.360868,8.135388-3.258102,6.174028-.342849,12.443248-1.973764,18.643798-2.1966l29.539891-1.061608,6.358571-1.564223Z"/><path class="cls-3" d="M576.276366,475.741225l-6.731362-.043064c-9.093283-7.095006-12.875567-.691401-15.949279-6.616788,2.366753-.256812,6.697354-.16043,8.833829.751232l13.846812,5.90862Z"/><path class="cls-1" d="M422.83274,194.29199l-1.520314,11.640739-11.433369,88.738021-11.722065-1.752045,14.949611-65.762395c2.636298-11.59691,4.993913-22.717743,6.870768-33.95729l2.85537,1.09297Z"/><path class="cls-1" d="M379.800803,194.409679c-.061234,8.589264-.041489,17.257788.434411,26.250137l2.034783,38.448175,1.41585,31.804201c-3.627295.781538-7.960204.837823-11.69254.307633l1.690467-37.74674.971367-22.068105.977655-16.789244.496061-19.296141,3.671946-.909917Z"/><path class="cls-1" d="M344.662337,236.936376l12.506345,55.437023c-2.574395.724571-5.60784,1.341449-7.274584,1.470943-.25268.019631-.664037-.034065-.976216-.06798l-2.070198-1.903562-1.94458-2.170253-5.056419-44.785877c-.406397-3.599557,1.299061-6.954835,4.815652-7.980294Z"/><path class="cls-1" d="M454.773005,241.726656c-1.283107-2.684877-8.195377,21.679659-7.765235,22.194197-.595455,1.822922-11.810414,15.920454-14.114532,14.786565l17.149172-42.555528-1.286338-5.266101c1.520696.072643,1.753653,3.12383,2.620553,4.307176,1.747722,2.385695,3.64627,3.973033,3.39638,6.53369Z"/><path class="cls-3" d="M349.894097,293.844342c.586371,3.697353,1.487655,7.54636,4.336673,9.844637,1.963795,3.635431,4.285153,7.410498,6.860522,11.246074l6.688795,9.961827,4.137276,6.820649,4.607572,2.383142c.61568.318444,1.573225,2.534731,2.236606,2.302175l3.042905-1.066724c7.240882-2.538371,14.382855-6.594625,16.931416-14.44694,5.142654-4.08751,9.059372-9.278414,11.968798-15.16591l5.92272-4.868719c-.579789,3.643124-12.227486,17.800476-15.440191,20.894429-.764754.736486-1.573232,3.666582-2.270014,4.425182-2.613394,2.845252-7.658181,7.817947-11.489796,9.421276l-8.834038,3.69658c-2.421076-1.634632-7.1135-4.75204-8.672987-7.207043-5.560921-8.754208-10.481705-16.426435-16.778842-24.524409-1.533866-1.972516-6.056114-10.858157-4.223631-13.784205.312179.033915.723536.087611.976216.06798Z"/><path class="cls-3" d="M344.903104,289.702547l1.94458,2.170253c-1.693962.603684-3.758036-.243278-5.909458-.96236l-7.614037-2.544884c-3.61922-1.209673-5.434416-5.486807-3.220434-8.373772,2.219993-.949334,3.412051-2.907941,3.301975-5.099334,1.252205.459831,2.186255,2.924833,1.354507,3.781994l-4.256143,4.386189c3.773747,2.781201,9.372423,5.358698,14.399009,6.641913Z"/><path class="cls-3" d="M426.784709,286.8106l6.108529-8.103181c2.304118,1.133889,13.519077-12.963643,14.114532-14.786565,2.377992-.630526,3.195025-2.916402,4.489135-5.378556l4.008932-7.627334c-.237559,3.09533-1.138264,6.021487-2.461442,9.258848-1.271745,3.370005-3.095721,5.916452-5.917167,7.97535l-13.316087,13.6572c-2.188456,2.244517-4.437013,4.240574-7.026432,5.004237Z"/><path class="cls-3" d="M425.735217,288.722006l-2.693186,7.547764c-.530535,1.486845-4.002671,2.982807-5.391328,3.371541l5.047503-6.870821c.85068-2.090247,1.506296-3.891432,3.037011-4.048484Z"/><path class="cls-1" d="M425.957665,195.120884l-2.125156-.902103,2.125156.902103Z"/><path class="cls-1" d="M410.704661,305.723272c-2.909426,5.887496-6.826143,11.0784-11.968798,15.16591-2.548561,7.852315-9.690534,11.908569-16.931416,14.44694l-3.042905,1.066724c-.663381.232555-1.620925-1.983731-2.236606-2.302175l-4.607572-2.383142-4.137276-6.820649-6.688795-9.961827c-2.575369-3.835576-4.896727-7.610643-6.860522-11.246074,18.928972-3.04731,37.787291-2.247365,56.47389,2.034293Z"/></svg>